<svg xmlns="http://www.w3.org/2000/svg" xmlns:xlink="http://www.w3.org/1999/xlink" width="411.758" height="287.108" viewBox="0 0 411.758 287.108"><defs><style>.a,.b{fill:#1a73e8;}.a,.e,.g,.l{opacity:0.1;}.c,.g{fill:#444053;}.d{fill:#3f3d56;}.f{fill:#fff;}.h{fill:url(#a);}.i{fill:#a1616a;}.j{opacity:0.15;}.k{fill:#fbbebe;}</style><linearGradient id="a" x1="0.5" y1="1" x2="0.5" gradientUnits="objectBoundingBox"><stop offset="0" stop-color="gray" stop-opacity="0.251"/><stop offset="0.54" stop-color="gray" stop-opacity="0.122"/><stop offset="1" stop-color="gray" stop-opacity="0.102"/></linearGradient></defs><g transform="translate(0 0.005)"><path class="a" d="M275.331,102.049c-26.388-.916-51.521-9.437-75.522-18.757s-47.773-19.648-73.533-24.585c-16.564-3.179-35.511-3.627-48.86,5.255-12.845,8.547-16.995,23.3-19.228,36.993-1.679,10.3-2.664,21.14,1.934,30.785,3.193,6.693,8.864,12.32,12.772,18.732,13.645,22.315,4.014,49.827-10.787,71.617-6.934,10.218-14.984,19.969-20.334,30.847s-7.817,23.344-3.113,34.46c4.642,11,15.692,19.261,27.687,25.074,24.319,11.784,53,15.163,80.963,17.075,61.906,4.233,124.145,2.4,186.216.566,22.969-.682,46.043-1.368,68.639-4.923,12.55-1.971,25.5-5.109,34.617-12.659,11.565-9.594,14.433-25.841,6.682-37.872-13-20.181-48.941-25.18-58.024-46.849-5-11.919.135-25.2,7.4-36.252,15.59-23.72,41.722-44.521,43.1-71.632.949-18.611-11.616-37.266-31.041-46.076-20.363-9.233-48.594-8.072-63.618,7.215C325.815,96.8,298.632,102.856,275.331,102.049Z" transform="translate(-36.048 -56.63)"/><path class="b" d="M928.243,737.59a11.244,11.244,0,0,0-4.594-.489,1.478,1.478,0,0,0,.274,2.941,13.571,13.571,0,0,0,2.8-.515Z" transform="translate(-598.844 -488.745)"/><path class="b" d="M936.825,738.61a11.228,11.228,0,0,1,1.124,4.485,1.479,1.479,0,0,1-2.952.139,13.718,13.718,0,0,1,.124-2.839Z" transform="translate(-606.854 -489.74)"/><path class="b" d="M937.105,718.233s-.923-2.9-6.569-1.773a2.313,2.313,0,0,0,.073,4.558h.11C934.445,721.535,935.74,720.057,937.105,718.233Z" transform="translate(-602.842 -475.508)"/><path class="b" d="M950.176,721.3s3.032.237,3.222,5.985a2.314,2.314,0,0,1-4.452.971.315.315,0,0,0-.04-.106C947.566,724.643,948.709,723.044,950.176,721.3Z" transform="translate(-615.325 -478.747)"/><path class="b" d="M950.319,692.8a6.032,6.032,0,0,0-4.073-4.547c-3.821-1.2-5.839,4.511-2.106,5.963a11.926,11.926,0,0,0,4.832.7Z" transform="translate(-611.418 -457.654)"/><path class="b" d="M960.838,667.115a7.93,7.93,0,0,0-5.547-4.379c-4.244-.777-5.529,5.6-1.336,6.616a13.994,13.994,0,0,0,5.715.047Z" transform="translate(-617.276 -441.513)"/><path class="b" d="M968.85,642.011A9.058,9.058,0,0,0,963.011,638c-3.649-.686-4.879,4.777-1.3,5.711a13.627,13.627,0,0,0,6.839-.095Z" transform="translate(-622.475 -425.805)"/><path class="b" d="M976.759,616.673a9.418,9.418,0,0,0-5.109-4.062c-3.649-1.12-5.452,4.412-1.825,5.616a10.389,10.389,0,0,0,6.62-.025Z" transform="translate(-627.73 -409.627)"/><path class="b" d="M979.6,591.2a12.672,12.672,0,0,0-4.434-5.233c-3.314-2.018-6.47,2.919-3.284,5.142a9.245,9.245,0,0,0,7.415,1.69Z" transform="translate(-629.452 -392.498)"/><path class="b" d="M980.664,564.43a12.412,12.412,0,0,0-4.7-5.109c-3.452-1.825-6.456,3.219-3.2,5.394,2.128,1.419,4.784,2.339,7.605,1.23Z" transform="translate(-629.968 -375.63)"/><path class="b" d="M981.33,539.587a22.384,22.384,0,0,0-4.379-4.981c-2.416-1.974-5.474,1.58-3.186,3.689,2.113,1.938,4.744,3.565,7.463,3.434Z" transform="translate(-630.977 -359.816)"/><path class="b" d="M978.72,513.359a32.807,32.807,0,0,0-4.948-6.394,2.052,2.052,0,0,0-2.92,2.879,18.989,18.989,0,0,0,8.1,5.452Z" transform="translate(-629.283 -342.251)"/><path class="b" d="M975.513,488.017a29.249,29.249,0,0,0-3.952-4.894A2.062,2.062,0,0,0,968.612,486a15.084,15.084,0,0,0,7.4,4.649Z" transform="translate(-627.846 -327.098)"/><path class="b" d="M972.533,462.757a46.668,46.668,0,0,0-3.8-4.514,1.708,1.708,0,0,0-2.525,2.3c1.69,1.949,3.857,3.675,6.35,3.952Z" transform="translate(-626.413 -311.344)"/><path class="b" d="M968.82,435.857a47.559,47.559,0,0,0-3.649-6,1.494,1.494,0,0,0-2.445,1.715,13.3,13.3,0,0,0,5.934,5.193Z" transform="translate(-624.305 -293.261)"/><path class="b" d="M967.463,408.367s-.9-1.529-2.19-3.306a1.568,1.568,0,0,0-2.6,1.752c1.241,1.9,2.8,3.522,4.605,3.843Z" transform="translate(-624.273 -277.489)"/><path class="b" d="M968.406,382.376l-1.142-5.711a1.2,1.2,0,0,0-2.372.365c.409,3.051,1.46,6.12,3.748,8.134Z" transform="translate(-625.848 -259.264)"/><path class="b" d="M972.654,348.327h0a1.12,1.12,0,0,0-2.138.613,28.908,28.908,0,0,0,1.153,4.671Z" transform="translate(-629.417 -241.447)"/><path class="b" d="M963.175,700.161a6.032,6.032,0,0,1,5.97,1.285c2.919,2.726-1.029,7.3-4.142,4.784a11.99,11.99,0,0,1-3-3.85Z" transform="translate(-624.018 -465.129)"/><path class="b" d="M975.993,673.642a7.922,7.922,0,0,1,6.81,1.854c3.149,2.949-1.2,7.777-4.521,5.014a13.973,13.973,0,0,1-3.441-4.565Z" transform="translate(-632.173 -448.386)"/><path class="b" d="M985.157,647.913a9.062,9.062,0,0,1,6.934-1.54c3.649.73,2.741,6.251-.934,5.781a13.652,13.652,0,0,1-6.306-2.646Z" transform="translate(-638.53 -431.065)"/><path class="b" d="M992.256,620.862A9.409,9.409,0,0,1,998.5,619c3.817.332,3.408,6.131-.412,5.89a10.367,10.367,0,0,1-6.131-2.5Z" transform="translate(-643.045 -413.765)"/><path class="b" d="M995.2,593.71a12.709,12.709,0,0,1,5.259-4.4c3.587-1.42,5.89,3.956,2.4,5.609a9.25,9.25,0,0,1-7.631.42Z" transform="translate(-645.103 -394.773)"/><path class="b" d="M995.55,565.485a12.365,12.365,0,0,1,5.321-4.438c3.649-1.368,5.981,4.033,2.474,5.766-2.3,1.131-5.051,1.693-7.7.226Z" transform="translate(-645.325 -376.835)"/><path class="b" d="M993.67,537.264a22.375,22.375,0,0,1,3.211-5.8,2.438,2.438,0,0,1,3.9,2.919c-1.65,2.346-3.854,4.5-6.569,4.952Z" transform="translate(-644.131 -357.588)"/><path class="b" d="M992.9,510.575a32.674,32.674,0,0,1,2.963-7.539,2.045,2.045,0,0,1,3.591,1.952,18.916,18.916,0,0,1-6.255,7.5Z" transform="translate(-643.642 -339.482)"/><path class="b" d="M987.1,484.694a29.275,29.275,0,0,1,3.014-5.755,2.056,2.056,0,0,1,3.459,2.219,15.154,15.154,0,0,1-6.434,6.2Z" transform="translate(-639.958 -324.249)"/><path class="b" d="M982.48,459.543a46.9,46.9,0,0,1,1.58-5.682,1.708,1.708,0,0,1,3.252,1.036c-.73,2.474-1.982,4.945-4.131,6.233Z" transform="translate(-637.024 -308.181)"/><path class="b" d="M979.27,433.709a47.39,47.39,0,0,1,2.19-6.682,1.5,1.5,0,0,1,2.773,1.113,13.3,13.3,0,0,1-4.591,6.408Z" transform="translate(-634.986 -291.285)"/><path class="b" d="M974.46,408.824s.343-1.741.967-3.846a1.567,1.567,0,0,1,3.033.788c-.533,2.19-1.46,4.251-3.065,5.156Z" transform="translate(-631.931 -277.143)"/><path class="b" d="M974.456,382.019l1.985-5.474a1.2,1.2,0,0,1,2.288.73c-.858,2.956-2.346,5.839-4.919,7.481Z" transform="translate(-631.518 -259.293)"/><path class="b" d="M976.625,349.562s.31-.248.785-.639a.984.984,0,0,1,1.317,1.46,18.609,18.609,0,0,1-5.4,3.423Z" transform="translate(-631.214 -242.108)"/><path class="b" d="M981.3,328.265a71.844,71.844,0,0,1,3.959-7.05.73.73,0,0,0-1.182-.836,21.168,21.168,0,0,0-3.182,7.375Z" transform="translate(-636.015 -223.983)"/><path class="c" d="M974.106,369.7l.423-.044c-1.825-17.009-1.055-27.5,2.135-29.53l-.23-.365C973.055,341.924,972.252,352.273,974.106,369.7Z" transform="translate(-631.088 -236.441)"/><path class="c" d="M981.855,459.843l.631-.095c-.237-1.573-.511-3.171-.817-4.744-2.657-13.805-4.722-26.567-5.755-36.259l-.464-.365c1.036,9.711,2.919,22.914,5.594,36.737C981.344,456.679,981.617,458.274,981.855,459.843Z" transform="translate(-632.56 -286.371)"/><path class="c" d="M911.1,615.607c.095-.077,9.817-7.514,18.352-21.779a91.961,91.961,0,0,0,10.8-26.928c2.7-11.864,2.773-25.68.828-38.62l-.569.456c4.379,29.041-3.974,51.59-11.769,64.625-8.452,14.134-18.06,21.494-18.159,21.567Z" transform="translate(-591.369 -356.165)"/><ellipse class="b" cx="24.286" cy="4.671" rx="24.286" ry="4.671" transform="translate(46.517 250.034)"/><ellipse class="d" cx="2.828" cy="3.7" rx="2.828" ry="3.7" transform="translate(67.566 249.02)"/><ellipse class="d" cx="2.828" cy="3.7" rx="2.828" ry="3.7" transform="translate(67.566 244.495)"/><ellipse class="d" cx="2.828" cy="3.7" rx="2.828" ry="3.7" transform="translate(67.566 239.973)"/><ellipse class="d" cx="2.828" cy="3.7" rx="2.828" ry="3.7" transform="translate(67.566 235.448)"/><ellipse class="d" cx="2.828" cy="3.7" rx="2.828" ry="3.7" transform="translate(67.566 230.923)"/><ellipse class="d" cx="2.828" cy="3.7" rx="2.828" ry="3.7" transform="translate(67.566 226.402)"/><ellipse class="d" cx="2.828" cy="3.7" rx="2.828" ry="3.7" transform="translate(67.566 221.877)"/><path class="b" d="M215.607,551.772a13.333,13.333,0,0,0,1.055-1.551L209.231,549l8.028.058a13.554,13.554,0,0,0,.259-10.729l-10.78,5.591,9.941-7.3a13.546,13.546,0,1,0-22.37,15.156,13.684,13.684,0,0,0-1.544,2.471l9.645,5.01-10.276-3.452a13.55,13.55,0,0,0,2.19,12.718,13.546,13.546,0,1,0,21.29,0,13.535,13.535,0,0,0,0-16.746Z" transform="translate(-134.629 -357.156)"/><path class="e" d="M191.453,612.542a13.5,13.5,0,0,0,2.9,8.371,13.546,13.546,0,1,0,21.29,0C217.458,618.611,191.453,611.02,191.453,612.542Z" transform="translate(-134.663 -409.551)"/><path class="f" d="M267.81,317.87V479.063a5.627,5.627,0,0,0,5.627,5.627H504.754a5.627,5.627,0,0,0,5.627-5.627V317.87Z" transform="translate(-183.158 -222.54)"/><rect class="e" width="57.987" height="34.037" rx="8.65" transform="translate(103.848 109.76)"/><rect class="e" width="57.987" height="34.037" rx="8.65" transform="translate(176.946 109.76)"/><rect class="b" width="56.356" height="33.077" rx="8.65" transform="translate(104.661 110.238)"/><rect class="g" width="56.356" height="33.077" rx="8.65" transform="translate(307.215 143.315) rotate(180)"/><rect class="b" width="56.356" height="33.077" rx="8.65" transform="translate(234.116 143.315) rotate(180)"/><rect class="g" width="56.356" height="33.077" rx="8.65" transform="translate(104.661 158.018)"/><rect class="g" width="56.356" height="33.077" rx="8.65" transform="translate(307.215 191.095) rotate(180)"/><rect class="g" width="56.356" height="33.077" rx="8.65" transform="translate(234.116 191.095) rotate(180)"/><rect class="g" width="56.356" height="33.077" rx="8.65" transform="translate(104.661 205.798)"/><rect class="g" width="56.356" height="33.077" rx="8.65" transform="translate(307.215 238.879) rotate(180)"/><rect class="g" width="56.356" height="33.077" rx="8.65" transform="translate(234.116 238.879) rotate(180)"/><path class="b" d="M267.81,230.061v29.285H510.381V230.061a5.627,5.627,0,0,0-5.627-5.631H273.437A5.627,5.627,0,0,0,267.81,230.061Zm60.031,8.663a4.492,4.492,0,1,1,4.492-4.492A4.492,4.492,0,0,1,327.841,238.724Zm122.51,0a4.5,4.5,0,1,0-.007,0Z" transform="translate(-183.158 -163.198)"/><path class="e" d="M423.063,236.74a5.31,5.31,0,1,0,5.306,5.308A5.31,5.31,0,0,0,423.063,236.74Zm0,9.8a4.492,4.492,0,1,1,4.492-4.492,4.492,4.492,0,0,1-4.492,4.492Z" transform="translate(-278.38 -171.016)"/><path class="e" d="M758.76,236.74a5.31,5.31,0,1,0,5.31,5.31A5.31,5.31,0,0,0,758.76,236.74Zm0,9.8a4.492,4.492,0,1,1,4.492-4.492,4.492,4.492,0,0,1-4.492,4.492Z" transform="translate(-491.574 -171.016)"/><circle class="a" cx="5.572" cy="5.572" r="5.572" transform="translate(371.435 147.672)"/><circle class="a" cx="9.342" cy="9.342" r="9.342" transform="translate(387.601 119.051)"/><circle class="a" cx="9.342" cy="9.342" r="9.342" transform="translate(375.234 164.382)"/><circle class="a" cx="13.229" cy="13.229" r="13.229" transform="translate(0 112.873)"/><path class="h" d="M847.752,544.178a11.677,11.677,0,0,0-2.708-1.522.559.559,0,0,0-.237-.062,41.66,41.66,0,0,1-5.583-4.81c.365-.292.7-.577,1.058-.857-2.19-1.044-3.4-3.434-4.587-5.591a55.157,55.157,0,0,0-12.167-15.159c-.12-.463-.825-.365-1.2-.664a.964.964,0,0,1-.266-.931c.058-.336.212-.646.3-.974a6.583,6.583,0,0,0-.062-2.372,2.906,2.906,0,0,1,.474-2.266c.168-.193.383-.343.547-.54a2.058,2.058,0,0,0,.365-1.639,5.813,5.813,0,0,0-.365-1.66q2.682-7.3,5.361-14.623c1.252-3.408,2.514-6.89,2.642-10.525A12.578,12.578,0,0,0,828.9,471.8c.321-.077.642-.157.96-.248-2.088-2.766-2.314-6.43-2.369-9.915q-.044-2.606-.179-5.215c.606.266,1.219.5,1.846.708l.584.179a20.123,20.123,0,0,0,2.894.62c.431.062.869.109,1.3.139h0q-.942-2.357-1.88-4.722a6.454,6.454,0,0,1-.584-2.215h0v-.146a1.269,1.269,0,0,1,.018-.263,2.871,2.871,0,0,1,.142-.613,2.725,2.725,0,0,1,.113-.288,5.115,5.115,0,0,1,.467-.821c.131-.2.277-.394.423-.591a8.075,8.075,0,0,0,1.31-2.12,4.015,4.015,0,0,0,.2-1.208,5.944,5.944,0,0,0-.109-1.241c-.051-.27-.117-.544-.19-.806h0c-.047-.164-.1-.328-.15-.489l-.044-.131c-.04-.124-.08-.244-.124-.365l-.044-.124c-.047-.131-.1-.259-.146-.39l-.029-.077c-.7-1.792-1.624-3.5-2.19-5.343a14.116,14.116,0,0,1-.365-1.493c-.025-.128-.044-.259-.066-.387s-.033-.219-.047-.328-.033-.255-.048-.383l-.033-.365c0-.117-.018-.234-.026-.365,0-.223-.022-.445-.025-.668v-1.014c0-.168.025-.336.04-.5a.738.738,0,0,1,.026-.237q.037-.365.1-.73h0c.036-.215.077-.434.12-.653a8.7,8.7,0,0,0,.2-1.825,1.8,1.8,0,0,0-.026-.365c-.026-.128-.029-.2-.047-.292a.748.748,0,0,1,0-.088.973.973,0,0,0-.047-.2.365.365,0,0,0-.029-.091c-.011-.029-.04-.128-.062-.19s-.018-.055-.029-.084-.051-.131-.08-.193l-.026-.066c-.036-.08-.077-.157-.117-.234h0a5.359,5.359,0,0,0-.489-.759h0c-1.2-1.577-3.2-2.777-4.3-4.514a10.05,10.05,0,0,1-1.23-3.649c-.055-.292-.1-.584-.153-.872s-.095-.573-.146-.858c-.033-.175-.066-.365-.1-.525l-.022-.113c-.029-.139-.058-.281-.091-.42l-.022-.1c-.033-.146-.066-.292-.1-.438l-.022-.077c-.036-.153-.077-.307-.117-.46a.315.315,0,0,1,0-.055c-.044-.161-.091-.321-.139-.482v-.033c-.051-.168-.1-.332-.157-.5h0c-.055-.168-.113-.339-.175-.507h0c-.066-.171-.128-.343-.2-.511h0a13.5,13.5,0,0,0-1.846-3.284,8.716,8.716,0,0,0-6.934-3.584,13.735,13.735,0,0,0-4.171,1.058l-3.514,1.3.982-.453a8.4,8.4,0,0,0-2.989.639,2.9,2.9,0,0,0-1.733,2.376c-.018.6.219,1.2.142,1.8-.128.989-1.036,1.66-1.507,2.536a3.263,3.263,0,0,0-.365,1.715v.233a.311.311,0,0,0,0,.058v.117c-1.46-.635-2.919-1.3-4.379-2-2.412-1.186-4.854-2.58-6.357-4.828-.482-.73-.854-1.518-1.332-2.241a17.761,17.761,0,0,0-1.825-2.19L782.78,398.9c-.343.646.1,1.409.445,2.051a8.811,8.811,0,0,1,.828,2.138,1.016,1.016,0,0,1-.022.748,1.46,1.46,0,0,1-.613.434,2.19,2.19,0,0,0-.923,2.507,2.773,2.773,0,0,0,2.069,1.8,3.751,3.751,0,0,1,.923.226c.54.266.8.887,1.182,1.35a5.307,5.307,0,0,0,2.894,1.441c1.657,1.912,3.379,3.744,5.036,5.656,2.507,2.894,5.072,5.839,8.342,7.795.339.2.686.394,1.036.569a.574.574,0,0,1-.018.175,1.979,1.979,0,0,0,.157,1.277,2.006,2.006,0,0,0,1.43.7l2.474.442a8.479,8.479,0,0,1-.12.956c-.033.193-.073.383-.11.577h0l-.044.248v.036a.725.725,0,0,1-.026.2c-.026.069,0,.047,0,.069v.485A4.65,4.65,0,0,0,809.1,433.3l.347.42a5.837,5.837,0,0,0-1.128,2.365,8.029,8.029,0,0,0-.161,1.646,2.86,2.86,0,0,0-.73,1.138,5.2,5.2,0,0,0-.19,1.843v.73a6.131,6.131,0,0,0,.423,2.555c.033.066.069.124.1.186a35.553,35.553,0,0,1-2.113,2.919,6.335,6.335,0,0,0,.58,7.255c.5.577,1.142,1.131,1.2,1.9a7.112,7.112,0,0,1-.1,1.036,7.755,7.755,0,0,0,.526,2.4,2.484,2.484,0,0,1-.2,1.992,2.919,2.919,0,0,0-.5,1.912,12.785,12.785,0,0,1-.314,3.113c-.033.449,0,.905-.04,1.354a7.641,7.641,0,0,1-.266,1.27.523.523,0,0,1-.036.139c-.9.4-1.8.81-2.657,1.288a2.332,2.332,0,0,0-1.095,1.007,2.585,2.585,0,0,0-.058,1.387l.777,5.408-.135-.058q.091,1.328.19,2.668a3.6,3.6,0,0,0,.511,1.93,5.03,5.03,0,0,1,.551.7c.306.62-.058,1.343-.329,1.978s-.365,1.536.23,1.879a4.848,4.848,0,0,0,1,.533c-.73,3.043-.058,6.233.62,9.287q.777,3.5,1.558,7a16.974,16.974,0,0,1,.343,3.007v.438a16.846,16.846,0,0,0,.73,4.094c.81,2.73.033,6.007.288,8.981a26.652,26.652,0,0,0,.854,4.229,130.325,130.325,0,0,1,3.941,21.034,5.284,5.284,0,0,0,2.525,1.763c-.073.883.026,1.894,0,2.409a4.162,4.162,0,0,1-.2,1.255,3.016,3.016,0,0,1-1.908,1.624c-.255.088-.515.157-.777.219l.292-.248a6.518,6.518,0,0,0-4.857.854,1.924,1.924,0,0,0-.96,1.131,1.825,1.825,0,0,0,.336,1.31,5.975,5.975,0,0,0,3.376,2.4,17.712,17.712,0,0,0,4.16.58l2.577.15a.708.708,0,0,0,.168.916,1.8,1.8,0,0,0,.945.343,12.045,12.045,0,0,0,3.179.047,1.245,1.245,0,0,0,.73-.263.471.471,0,0,0,0-.7.77.77,0,0,0,.7-.511,2.071,2.071,0,0,0,.095-.923,9.909,9.909,0,0,0-.8-4.014,1.018,1.018,0,0,0-1.128-.5,43.782,43.782,0,0,1-.73-6.474,15.83,15.83,0,0,0,1.876-.847c-1.792-2.894-1.825-6.569-1.277-9.933a30.093,30.093,0,0,0,.478-3.215,10.661,10.661,0,0,0-1.4-6.372,22.8,22.8,0,0,1,5.693,5.153c2.522,3.284,4.058,7.262,7.149,10q.61-.595,1.233-1.182.978,1.657,1.85,3.383a12.882,12.882,0,0,1,1.073,2.668,12.34,12.34,0,0,1,.1,4.3q-.128,1.139-.31,2.266a6.154,6.154,0,0,1-.223.949.657.657,0,0,0-.069-.285c-.193-.339-.73-.186-1.022.047a4.51,4.51,0,0,0-1.259,1.46,1.574,1.574,0,0,0-.226.931,1.376,1.376,0,0,0,.73.912c1.354.792,3.054.219,4.507-.365a5.289,5.289,0,0,0,1.138-.573c.73-.526,1.128-1.39,1.854-1.9a10.726,10.726,0,0,0,1.12-.708c.675-.617.73-1.657,1.222-2.438.818-1.347,2.646-1.693,3.361-3.12C849.967,547.2,849,545.207,847.752,544.178Z" transform="translate(-509.957 -273.999)"/><path class="i" d="M864.933,807.551a4.065,4.065,0,0,1-.2,1.241,3,3,0,0,1-1.9,1.6c-.81.281-1.671.365-2.5.609a2.191,2.191,0,0,0-.974.5,1.768,1.768,0,0,0,.562,2.587,4.847,4.847,0,0,0,2.956.456,38.939,38.939,0,0,0,6.394-.909c.759-.179,1.646-.529,1.766-1.3a2.13,2.13,0,0,0-.058-.73,43.133,43.133,0,0,1-.821-7.93,16.486,16.486,0,0,0-4.627-.033C864.645,804.23,864.981,806.653,864.933,807.551Z" transform="translate(-558.598 -530.95)"/><path class="i" d="M925.59,782.646q1.051,1.741,1.974,3.551a12.571,12.571,0,0,1,1.073,2.631,12.1,12.1,0,0,1,.1,4.244q-.128,1.12-.314,2.237a2.826,2.826,0,0,1-.938,1.978,2.161,2.161,0,0,0,1.861.164,5.363,5.363,0,0,0,1.638-1c3.127-2.58,5.474-6.328,5.591-10.382a1.647,1.647,0,0,0-.172-.92,1.826,1.826,0,0,0-.547-.489,42.059,42.059,0,0,1-6.47-5.434.791.791,0,0,0-.474-.3.82.82,0,0,0-.423.12c-1.2.6-3.208,1.46-3.708,2.828A1.911,1.911,0,0,1,925.59,782.646Z" transform="translate(-600.381 -515.339)"/><path class="d" d="M864.987,823.484a32.488,32.488,0,0,1-8.317,1.865,1.137,1.137,0,0,1-1-.183.759.759,0,0,1-.066-.854,2.224,2.224,0,0,1,.609-.672l1.887-1.58a6.569,6.569,0,0,0-4.8.825,1.909,1.909,0,0,0-.956,1.095,1.781,1.781,0,0,0,.336,1.3,5.962,5.962,0,0,0,3.372,2.365,18.028,18.028,0,0,0,4.156.573l2.555.146a.69.69,0,0,0,.171.905,1.826,1.826,0,0,0,.949.347,12.173,12.173,0,0,0,3.175.044,1.215,1.215,0,0,0,.73-.259.46.46,0,0,0,0-.686.77.77,0,0,0,.7-.507,2.111,2.111,0,0,0,.095-.909,9.557,9.557,0,0,0-.8-3.952C867.169,822.309,865.87,823.119,864.987,823.484Z" transform="translate(-554.375 -542.646)"/><path class="d" d="M939.562,794.894a11.743,11.743,0,0,0-2.708-1.5.321.321,0,0,0-.489.124,27.78,27.78,0,0,0-3.989,7.689,13.365,13.365,0,0,1-1.993,4.51c-.139.168-.365.339-.555.241-.274-.139-.106-.58-.259-.847-.19-.336-.708-.182-1.018.047a4.38,4.38,0,0,0-1.255,1.46,1.461,1.461,0,0,0-.226.916,1.35,1.35,0,0,0,.712.9c1.354.785,3.054.219,4.5-.365a5.153,5.153,0,0,0,1.135-.566c.73-.514,1.128-1.372,1.854-1.872a10.684,10.684,0,0,0,1.12-.7c.672-.609.73-1.635,1.219-2.409.817-1.325,2.646-1.668,3.361-3.076C941.773,797.872,940.81,795.909,939.562,794.894Z" transform="translate(-601.832 -524.49)"/><path class="d" d="M863.687,594.623c2.868,2.153,4.073,5.981,3.945,9.565s-1.387,7.021-2.635,10.382q-2.682,7.215-5.357,14.426a5.948,5.948,0,0,1,.365,1.642,2.018,2.018,0,0,1-.365,1.613c-.168.193-.365.343-.547.533a2.858,2.858,0,0,0-.474,2.237,6.48,6.48,0,0,1,.062,2.339c-.084.325-.237.631-.3.96a.952.952,0,0,0,.266.92c.365.292,1.095.2,1.2.657A54.543,54.543,0,0,1,872,654.858c1.182,2.128,2.376,4.485,4.583,5.514a80.032,80.032,0,0,0-6.178,5.434c-3.084-2.7-4.62-6.631-7.138-9.853a22.628,22.628,0,0,0-5.685-5.083,10.4,10.4,0,0,1,1.4,6.284,29.166,29.166,0,0,1-.478,3.171c-.566,3.321-.515,6.934,1.277,9.8a10.724,10.724,0,0,1-6.244,1.434,5.313,5.313,0,0,1-3.4-1.941,128.318,128.318,0,0,0-3.938-20.753,25.507,25.507,0,0,1-.85-4.2c-.255-2.919.522-6.167-.292-8.86a16.514,16.514,0,0,1-.73-4.036v-.434a16.542,16.542,0,0,0-.343-2.963l-1.555-6.9c-.679-3.018-1.358-6.164-.624-9.167a4.87,4.87,0,0,1-.993-.522c-.595-.339-.5-1.226-.23-1.854s.631-1.339.328-1.952a4.768,4.768,0,0,0-.551-.7,3.506,3.506,0,0,1-.511-1.9l-.19-2.635a5.156,5.156,0,0,1,2.6,2.273c-1.438-2.226-.73-5.4.332-7.831a3.569,3.569,0,0,1,3.35-2.653C851.79,593.528,858.936,591.051,863.687,594.623Z" transform="translate(-546.323 -397.113)"/><path class="e" d="M891.546,638.93s-2.876,1.919-2.876,3.357-.73,14.378-.73,14.378v9.123s.478,4.8,0,5.992,0,6.711,0,7.43.73-7.43.73-7.43v-8.641l.73-19.655Z" transform="translate(-576.85 -426.436)"/><path class="i" d="M808.64,423.842l-1.675-.653c-3.423-1.372-6.85-2.748-10.163-4.357-2.409-1.171-4.85-2.554-6.35-4.762-.482-.73-.854-1.5-1.332-2.215a17.651,17.651,0,0,0-1.825-2.164l-4.474-4.781c-.343.639.095,1.39.445,2.022a8.761,8.761,0,0,1,.828,2.113.978.978,0,0,1-.026.73,1.419,1.419,0,0,1-.609.431,2.142,2.142,0,0,0-.923,2.471,2.755,2.755,0,0,0,2.066,1.781,3.92,3.92,0,0,1,.923.223c.54.266.8.876,1.182,1.332a5.309,5.309,0,0,0,2.89,1.423c1.657,1.887,3.376,3.693,5.032,5.58,2.5,2.854,5.065,5.759,8.335,7.693a12.205,12.205,0,0,0,3.762,1.511A60.984,60.984,0,0,1,808.64,423.842Z" transform="translate(-509.983 -277.816)"/><path class="j" d="M808.64,423.842l-1.675-.653c-3.423-1.372-6.85-2.748-10.163-4.357-2.409-1.171-4.85-2.554-6.35-4.762-.482-.73-.854-1.5-1.332-2.215a17.651,17.651,0,0,0-1.825-2.164l-4.474-4.781c-.343.639.095,1.39.445,2.022a8.761,8.761,0,0,1,.828,2.113.978.978,0,0,1-.026.73,1.419,1.419,0,0,1-.609.431,2.142,2.142,0,0,0-.923,2.471,2.755,2.755,0,0,0,2.066,1.781,3.92,3.92,0,0,1,.923.223c.54.266.8.876,1.182,1.332a5.309,5.309,0,0,0,2.89,1.423c1.657,1.887,3.376,3.693,5.032,5.58,2.5,2.854,5.065,5.759,8.335,7.693a12.205,12.205,0,0,0,3.762,1.511A60.984,60.984,0,0,1,808.64,423.842Z" transform="translate(-509.983 -277.816)"/><path class="b" d="M843,465.48a2.01,2.01,0,0,1-1.43-.686,1.924,1.924,0,0,1-.157-1.259,35.31,35.31,0,0,1,1.825-8.065c.814,1.507,2.416,2.387,3.934,3.179a29.19,29.19,0,0,0,4.226,1.927c-.365-.117-1.259,5.5-1.763,5.839-.635.445-2.168-.157-2.872-.277Z" transform="translate(-547.411 -309.925)"/><circle class="i" cx="7.671" cy="7.671" r="7.671" transform="translate(291.808 138.556)"/><path class="k" d="M852.22,465.506s5.032,4.313,2.876,7.189-3.357,4.8-.482,5.036,12.462-4.8,12.462-4.8-8.868-7.189-7.43-11.5S852.22,465.506,852.22,465.506Z" transform="translate(-554.3 -312.93)"/><path class="b" d="M851.593,483.851a5.952,5.952,0,0,0-4.4,4.43c-.566,2.584.635,5.474-.5,7.853a31.18,31.18,0,0,1-2.19,3.04,6.2,6.2,0,0,0,.577,7.156c.5.569,1.142,1.12,1.2,1.872a6.873,6.873,0,0,1-.1,1.022,7.583,7.583,0,0,0,.526,2.376,2.417,2.417,0,0,1-.2,1.963,2.842,2.842,0,0,0-.5,1.887,12.619,12.619,0,0,1-.318,3.073c-.033.445,0,.89-.04,1.336a7.787,7.787,0,0,1-.263,1.252l-.642,2.368a26.325,26.325,0,0,0,10.948,1.956,53.673,53.673,0,0,0,10-1.46c1-.212,2.007-.423,3-.7-2.087-2.73-2.31-6.346-2.368-9.78a145.978,145.978,0,0,0-1.281-17.115,22.009,22.009,0,0,0,1.876-6.156,10.41,10.41,0,0,0,.234-2.6,13.842,13.842,0,0,0-1.763-5.211c-.752-1.511-1.566-3.1-3.241-3.755a2.576,2.576,0,0,0-2.492.274c-1.266.956-.89,2.606-1.215,4.014a5.388,5.388,0,0,1-3.9,3.649,12.68,12.68,0,0,1-4.1.383.73.73,0,0,1-.518-1.2C850.5,485.132,851.089,484.471,851.593,483.851Z" transform="translate(-548.845 -324.523)"/><path class="i" d="M853.8,574.49a49.939,49.939,0,0,1-8.988,6.306c-1.923.963-3.967,1.675-5.839,2.711a2.333,2.333,0,0,0-1.095.993,2.453,2.453,0,0,0-.058,1.368l.832,5.737c.23,1.555,1.723,2.554,2.919,3.547a2.1,2.1,0,0,1,.077-1.39,4.642,4.642,0,0,1,.281-.42,3.937,3.937,0,0,0,.405-2.7,14.975,14.975,0,0,1-.318-2.766.9.9,0,0,1,.387-.8c4.076-1.96,8.466-3.463,12.586-5.324a13.337,13.337,0,0,0,3.054-1.733,4.7,4.7,0,0,0,1.774-2.945.577.577,0,0,0-.073-.449.609.609,0,0,0-.31-.182C857.585,575.771,855.637,575.154,853.8,574.49Z" transform="translate(-545.108 -385.512)"/><path class="e" d="M853.9,508.5a4.126,4.126,0,0,0-3.368,2.317,5.152,5.152,0,0,0-.19,1.825,5.934,5.934,0,0,0,.427,2.529,7.14,7.14,0,0,0,.854,1.241c3.372,4.321,5.065,9.747,8.35,14.137.292.387.825.89.661,1.347a3.232,3.232,0,0,0-.157.365.73.73,0,0,0,.241.639,1.558,1.558,0,0,1,.4.58c.062.23-.091.529-.328.511a4.881,4.881,0,0,0,2.748,2.507A11.443,11.443,0,0,0,869.671,538a14,14,0,0,0,.73-5.021,13.029,13.029,0,0,0-1.223-3.562l-1.427-3.116a46.405,46.405,0,0,0-4.135-7.722,11.683,11.683,0,0,1-1.529-2.463c-.434-1.128-1.628-1.92-2.35-2.887a17.884,17.884,0,0,0-3.627-3.974A3.277,3.277,0,0,0,853.9,508.5Z" transform="translate(-553.1 -343.589)"/><path class="b" d="M853.9,506.526a4.13,4.13,0,0,0-3.368,2.314,5.182,5.182,0,0,0-.19,1.825,5.934,5.934,0,0,0,.427,2.529,7.14,7.14,0,0,0,.854,1.241c3.372,4.321,5.065,9.747,8.349,14.137.292.387.825.89.661,1.347a3.261,3.261,0,0,0-.157.365.73.73,0,0,0,.241.639,1.558,1.558,0,0,1,.4.58c.062.23-.091.529-.328.511a4.882,4.882,0,0,0,2.748,2.507,11.443,11.443,0,0,0,6.134,1.507,14,14,0,0,0,.73-5.021,13.034,13.034,0,0,0-1.223-3.562l-1.427-3.116a46.4,46.4,0,0,0-4.135-7.722,11.615,11.615,0,0,1-1.529-2.467c-.434-1.124-1.628-1.916-2.35-2.883a17.886,17.886,0,0,0-3.627-3.974A3.292,3.292,0,0,0,853.9,506.526Z" transform="translate(-553.1 -342.338)"/><path class="d" d="M840.082,419.51a8.446,8.446,0,0,0-2.985.628,2.872,2.872,0,0,0-1.733,2.343,13.941,13.941,0,0,1,.142,1.774c-.128.978-1.036,1.638-1.5,2.5-.817,1.5-.182,3.416.876,4.744s2.492,2.35,3.58,3.671a9.488,9.488,0,0,1,1.978,7.634,6.055,6.055,0,0,0-.193,1.595,4.581,4.581,0,0,0,1.372,2.478,114.468,114.468,0,0,1,8.656,11.517,31.105,31.105,0,0,1,2.131,3.649,22.129,22.129,0,0,0,1.956,3.857,10.186,10.186,0,0,0,2.872,2.463,20.283,20.283,0,0,0,9.2,2.967l-1.879-4.66a5.35,5.35,0,0,1-.566-2.587c.208-1.679,1.9-2.781,2.452-4.379a5.312,5.312,0,0,0-.1-3.211c-.664-2.361-1.993-4.485-2.708-6.831a13.868,13.868,0,0,1-.409-6.353,9.816,9.816,0,0,0,.3-2.81c-.347-2.854-3.693-4.219-5.24-6.638-1-1.555-1.193-3.471-1.529-5.288a16.688,16.688,0,0,0-3.022-7.419,8.71,8.71,0,0,0-6.934-3.536,14.013,14.013,0,0,0-4.167,1.044l-3.518,1.281" transform="translate(-542.494 -285.884)"/><g class="l" transform="translate(291.146 138.52)"><path d="M893.965,437.286a16.885,16.885,0,0,0,1.259,4.821c-.106-.569-.193-1.142-.3-1.7a21.252,21.252,0,0,0-1.175-4.182C893.841,436.574,893.9,436.928,893.965,437.286Z" transform="translate(-871.821 -436.22)"/><path d="M911.745,476.243a13.936,13.936,0,0,0,.409,6.357,16.389,16.389,0,0,0,.6,1.642,13.892,13.892,0,0,1-.047-4.883,9.818,9.818,0,0,0,.3-2.81,4.381,4.381,0,0,0-.949-2.19C912,474.995,911.851,475.619,911.745,476.243Z" transform="translate(-883.127 -460.442)"/><path d="M917.435,520.684a17.655,17.655,0,0,0-.73-2.014,4.477,4.477,0,0,1-.139,2.109c-.551,1.595-2.248,2.7-2.452,4.379a5.309,5.309,0,0,0,.566,2.587c.124.31.248.624.365.934a2.99,2.99,0,0,1,0-.405c.208-1.679,1.9-2.781,2.452-4.379A5.093,5.093,0,0,0,917.435,520.684Z" transform="translate(-884.74 -488.582)"/><path d="M867.771,510.095a10.217,10.217,0,0,1-2.872-2.467,22.015,22.015,0,0,1-1.96-3.857,30.784,30.784,0,0,0-2.131-3.649,114.613,114.613,0,0,0-8.653-11.521c-.113-.128-.223-.259-.332-.39a3.747,3.747,0,0,0-.084,1.029,4.582,4.582,0,0,0,1.372,2.478,114.454,114.454,0,0,1,8.656,11.517,31.123,31.123,0,0,1,2.131,3.649,22.124,22.124,0,0,0,1.956,3.857,10.189,10.189,0,0,0,2.872,2.463,20.284,20.284,0,0,0,9.2,2.967l-1.277-3.138a20.3,20.3,0,0,1-8.875-2.938Z" transform="translate(-845.137 -469.237)"/><path d="M837.516,450.174c-1.095-1.321-2.522-2.325-3.58-3.668-.095-.124-.186-.252-.277-.387a5.312,5.312,0,0,0,1.237,3.5c1.058,1.347,2.492,2.35,3.58,3.671a9.12,9.12,0,0,1,1.095,1.664,9.488,9.488,0,0,0-2.055-4.781Z" transform="translate(-833.658 -442.507)"/></g><path class="f" d="M395.838,349.226l-2.646-2.66a1.4,1.4,0,0,0-2,0l-16.615,16.462-7.029-7.08a1.4,1.4,0,0,0-1.982,0l-2.675,2.646a1.42,1.42,0,0,0,0,2l10.674,10.754a1.416,1.416,0,0,0,1.992,0l20.275-20.122a1.4,1.4,0,0,0,0-2Z" transform="translate(-243.284 -232.499)"/><path class="f" d="M596.838,349.226l-2.646-2.66a1.4,1.4,0,0,0-2,0l-16.615,16.462-7.029-7.08a1.4,1.4,0,0,0-1.982,0l-2.675,2.646a1.42,1.42,0,0,0,0,2l10.674,10.755a1.416,1.416,0,0,0,1.993,0l20.275-20.122a1.4,1.4,0,0,0,0-2Z" transform="translate(-370.933 -232.499)"/></g></svg>